inDegrees=yes
name=ik_S54_A04_T02
DataType=double
version=3
OpenSimVersion=4.3-2021-08-27-4bc7ad9
endheader
time	pelvis_tilt	pelvis_list	pelvis_rotation	pelvis_tx	pelvis_ty	pelvis_tz	hip_flexion_r	hip_adduction_r	hip_rotation_r	knee_angle_r	knee_angle_r_beta	ankle_angle_r	subtalar_angle_r	mtp_angle_r	hip_flexion_l	hip_adduction_l	hip_rotation_l	knee_angle_l	knee_angle_l_beta	ankle_angle_l	subtalar_angle_l	mtp_angle_l	lumbar_extension	lumbar_bending	lumbar_rotation	arm_flex_r	arm_add_r	arm_rot_r	elbow_flex_r	pro_sup_r	wrist_flex_r	wrist_dev_r	arm_flex_l	arm_add_l	arm_rot_l	elbow_flex_l	pro_sup_l	wrist_flex_l	wrist_dev_l
14.05999999999979	-5.508303425604642	-6.316741059435333	12.38029093172166	0	0.9399999999999999	0	45.78136521757498	1.741535356889555	-19.89952070615474	57.04625146762446	0.9956449140306942	0	0	0	51.9788466799132	-10.07011665555052	-5.791458736875164	61.5869207145944	1.074894542634371	0	0	0	0	0	0	31.25562290136416	-31.25562290136416	4.421724819875607	84.61879588052673	85.57827542860477	0	0	31.25562290136416	-31.25562290136416	4.421724819875607	84.61879588052673	85.57827542849751	0	0
14.07999999999979	-4.917276194657464	-6.170030501392902	12.53655753853355	0	0.9399999999999999	0	47.07678170327051	1.367803553972934	-19.2824160684149	59.11871507546002	1.031816227615185	0	0	0	52.57048075357219	-10.17906642607587	-5.318090708542953	62.97568072807807	1.099132977389702	0	0	0	0	0	0	31.32185544782223	-31.32185544782223	4.426455810903478	84.62191456380619	85.5735444378048	0	0	31.32185544782223	-31.32185544782223	4.426455810903478	84.62191456380619	85.57354443769844	0	0
14.09999999999979	-4.433034726887069	-6.105070437966978	12.68536881040647	0	0.9399999999999999	0	47.54009988555721	1.284045051876401	-18.97342840602354	60.15123607954143	1.049837118732404	0	0	0	53.2952054893396	-10.22310595822705	-4.799902357260672	64.37886165758526	1.123623104610797	0	0	0	0	0	0	31.32460236798496	-31.32460236798496	4.42668513256787	84.62206573178493	85.57331511615169	0	0	31.32460236798496	-31.32460236798496	4.42668513256787	84.62206573178493	85.57331511604538	0	0
14.11999999999979	-4.040041880527279	-6.08879417677647	12.76454025695016	0	0.9399999999999999	0	48.10584769390702	1.358201391481469	-18.57777370696277	61.1489638842793	1.067250753963775	0	0	0	54.25861752515929	-10.37682874104919	-4.22457251798322	65.8353991911091	1.149044480249665	0	0	0	0	0	0	31.32750394133403	-31.32750394133403	4.426927367508396	84.6222254121485	85.57307288122317	0	0	31.32750394133403	-31.32750394133403	4.426927367508396	84.6222254121485	85.57307288111687	0	0
14.13999999999979	-3.597422327539271	-6.024737412127315	12.83515279990675	0	0.9399999999999999	0	48.62220758288672	1.454358827631445	-17.96174981604831	62.22460625533429	1.086024254912643	0	0	0	55.01152517768668	-10.58156482886003	-3.658964272086359	67.31502786530636	1.174868872321326	0	0	0	0	0	0	31.33072007578417	-31.33072007578417	4.427195911697717	84.62240243547078	85.57280433704712	0	0	31.33072007578417	-31.33072007578417	4.427195911697717	84.62240243547078	85.57280433694095	0	0
14.15999999999979	-3.075291077948695	-5.836524406354171	12.85526543275999	0	0.9399999999999999	0	49.10359556695778	1.52211958947853	-17.35328016505468	63.20121787853133	1.103069343250677	0	0	0	55.69157609752397	-10.64928207292514	-3.019943758761708	68.81702376685763	1.201083646154856	0	0	0	0	0	0	31.3341485955695	-31.3341485955695	4.427482120055232	84.62259110295216	85.57251812870372	0	0	31.3341485955695	-31.3341485955695	4.427482120055232	84.62259110295216	85.57251812859761	0	0
14.17999999999979	-2.808120687515511	-5.697208208173012	12.87416460776607	0	0.9399999999999999	0	49.79558954090589	1.456820181142188	-16.83925417107665	64.33006905446203	1.122771513035678	0	0	0	56.55944390920803	-10.80946976925878	-2.519490127424719	70.19869065391293	1.225198282499752	0	0	0	0	0	0	31.33684242886478	-31.33684242886478	4.427706722492711	84.62273916005401	85.57229352627738	0	0	31.33684242886478	-31.33684242886478	4.427706722492711	84.62273916005401	85.57229352617131	0	0
14.19999999999979	-1.489695734835653	-4.929796962312418	13.13488454043916	0	0.9399999999999999	0	48.33250367754484	1.034011700056356	-16.54418316219732	64.53930210262236	1.126423318630059	0	0	0	56.20811858285082	-10.67562331181627	-2.357309238133761	71.54326247527113	1.24866548781199	0	0	0	0	0	0	31.34047627136665	-31.34047627136665	4.428009563938756	84.62293879203112	85.57199068484628	0	0	31.34047627136665	-31.34047627136665	4.428009563938756	84.62293879203112	85.57199068474024	0	0
14.21999999999979	-0.7519593060815379	-4.507480946606331	13.20928766032788	0	0.9399999999999999	0	50.06291648897155	0.3664601455778409	-14.89908191442934	67.48312713340701	1.177802758019875	0	0	0	56.44499745608351	-10.73299523530637	-2.055471626422025	72.91039639887316	1.272526476094553	0	0	0	0	0	0	31.40055397286208	-31.40055397286208	4.432282075041162	84.62575524496602	85.56771817394944	0	0	31.40055397286208	-31.40055397286208	4.432282075041162	84.62575524496602	85.56771817384427	0	0
14.23999999999979	0.04715336409881351	-4.091707952732479	13.24864689994978	0	0.9399999999999999	0	49.18884991208844	0.2502537464042226	-14.71380177897164	67.6059117085035	1.179945753125971	0	0	0	56.59771513173587	-10.90390579988984	-1.794006958089246	74.06613668797736	1.292697949437373	0	0	0	0	0	0	31.40413803199138	-31.40413803199138	4.432579994507126	84.62595163246395	85.56742025449822	0	0	31.40413803199138	-31.40413803199138	4.432579994507126	84.62595163246395	85.56742025439306	0	0
14.25999999999978	1.000763483069331	-3.564248872176352	13.25957091905555	0	0.9399999999999999	0	48.89506115844648	-0.1280254450620306	-13.97083861419869	68.43697577803125	1.194450557434253	0	0	0	56.46267272817332	-11.08676213672534	-1.685904263707827	75.08199459933037	1.310428014722916	0	0	0	0	0	0	31.40660670772295	-31.40660670772295	4.432785024074849	84.62608678726583	85.56721522494065	0	0	31.40660670772295	-31.40660670772295	4.432785024074849	84.62608678726583	85.56721522483552	0	0
14.27999999999978	1.424658612863931	-3.324308088671037	13.26766278016938	0	0.9399999999999999	0	49.27227606222711	-0.5120452784189251	-13.43241433826705	69.4359065250612	1.211885187969332	0	0	0	56.97383754045747	-11.29921879450141	-1.491010338292605	76.2034717916036	1.330001484214105	0	0	0	0	0	0	31.4092089014252	-31.4092089014252	4.433001182671082	84.62622927828609	85.56699906635508	0	0	31.4092089014252	-31.4092089014252	4.433001182671082	84.62622927828609	85.56699906624999	0	0
14.29999999999978	2.281887062740246	-2.846718336043858	13.26314660553341	0	0.9399999999999999	0	49.15588415336031	-0.8571085418502254	-12.88812543378321	70.30814810136134	1.227108675348555	0	0	0	55.97684760050715	-11.13565158039357	-1.779311451293773	76.18054866110262	1.329601400111999	0	0	0	0	0	0	31.41278749264717	-31.41278749264717	4.43329839337255	84.62642519858642	85.5667018556683	0	0	31.41278749264717	-31.41278749264717	4.43329839337255	84.62642519858642	85.56670185556322	0	0
14.31999999999978	3.220610330963402	-2.323100068201175	13.23328282169082	0	0.9399999999999999	0	48.95219047690741	-1.160094974213075	-12.28848189369807	71.11327296619818	1.241160755129632	0	0	0	56.66910192471685	-11.66163465518999	-1.298957721011375	77.98111558626471	1.361027221358587	0	0	0	0	0	0	31.42995434494868	-31.42995434494868	4.43453542206409	84.62724065119852	85.56546482703639	0	0	31.42995434494868	-31.42995434494868	4.43453542206409	84.62724065119852	85.56546482693152	0	0
14.33999999999978	4.221302153265674	-1.922783422176622	13.22184148666478	0	0.9399999999999999	0	48.72335387529132	-1.363925991148095	-11.72090514274593	71.88231162882501	1.254583011867604	0	0	0	56.48601931047012	-11.7958608415021	-1.001223412641641	78.9058619066104	1.377167089394322	0	0	0	0	0	0	31.43415181868422	-31.43415181868422	4.434884147258167	84.62747052969313	85.56511610185953	0	0	31.43415181868422	-31.43415181868422	4.434884147258167	84.62747052969313	85.5651161017547	0	0
14.35999999999978	4.871269214339359	-1.801566660104806	13.2894775773255	0	0.9399999999999999	0	48.78662822896876	-1.589776697920237	-11.41596139963648	72.49913780556253	1.265348659564163	0	0	0	56.74138385053729	-11.75267246984133	-0.8917369248778654	79.71398182222407	1.391271442672719	0	0	0	0	0	0	31.43722890963103	-31.43722890963103	4.435139654586257	84.62763895928687	85.56486059454407	0	0	31.43722890963103	-31.43722890963103	4.435139654586257	84.62763895928687	85.56486059443924	0	0
14.37999999999978	5.163382362963984	-1.834418079245632	13.23621159416524	0	0.9399999999999999	0	48.95235659852375	-1.714494139424127	-11.27014247439672	72.73748078936735	1.269508529380584	0	0	0	57.16187442563924	-11.81520736016556	-1.11460391480471	80.14533134268005	1.398799912031575	0	0	0	0	0	0	31.43987490401837	-31.43987490401837	4.435359309413865	84.62778375503372	85.5646409397273	0	0	31.43987490401837	-31.43987490401837	4.435359309413865	84.62778375503372	85.56464093962249	0	0
14.39999999999978	5.625020555802442	-1.779027359578567	13.24639572336033	0	0.9399999999999999	0	48.56472947588985	-1.798460424929361	-11.26198723190475	72.83092316166011	1.271139406437967	0	0	0	57.02122204476333	-11.85814277387924	-1.278696541017738	80.15367303431218	1.398945502015741	0	0	0	0	0	0	31.44119137407261	-31.44119137407261	4.435468050262772	84.62785543666878	85.56453219888378	0	0	31.44119137407261	-31.44119137407261	4.435468050262772	84.62785543666878	85.56453219877901	0	0
14.41999999999978	7.21653204852723	-1.256147191809008	13.14960797843158	0	0.9399999999999999	0	46.69130763012593	-1.83433032885819	-11.15666904834363	72.36048269641387	1.262928671384806	0	0	0	55.29207759889213	-11.9630529330556	-1.645038650892696	79.9599842198196	1.395564994478561	0	0	0	0	0	0	31.44392023642349	-31.44392023642349	4.435692234590378	84.62800321834035	85.56430801456725	0	0	31.44392023642349	-31.44392023642349	4.435692234590378	84.62800321834035	85.56430801446251	0	0
14.43999999999978	8.366971665137843	-0.8321454934474511	13.0298886941276	0	0.9399999999999999	0	45.24896168713209	-1.884500629041546	-11.09132471673655	71.38798958840842	1.245955464697158	0	0	0	53.86694154483239	-12.14443033098041	-1.898707683169177	79.28475788664483	1.383780071768493	0	0	0	0	0	0	31.44710968179566	-31.44710968179566	4.435954452843565	84.62817607186221	85.56404579632697	0	0	31.44710968179566	-31.44710968179566	4.435954452843565	84.62817607186221	85.5640457962223	0	0
14.45999999999978	9.099510741333619	-0.4715151422678162	12.93070586320893	0	0.9399999999999999	0	44.37790624768014	-1.873337410158531	-11.01309412406329	71.11881433833862	1.241257470318561	0	0	0	53.00370796836682	-12.24999192956145	-2.008860405468203	79.17489468166104	1.381862597114733	0	0	0	0	0	0	31.44924650266561	-31.44924650266561	4.436130155068104	84.62829189426593	85.56387009411111	0	0	31.44924650266561	-31.44924650266561	4.436130155068104	84.62829189426593	85.56387009400643	0	0
14.47999999999978	9.500930452896341	-0.277716919229793	12.90340534949722	0	0.9399999999999999	0	43.96358110543854	-1.840318122516099	-11.07988806340761	70.94104150571904	1.238154749068753	0	0	0	52.55555769401862	-12.22471472047722	-2.149186034688095	78.79671515695087	1.375262119244913	0	0	0	0	0	0	31.45157521079602	-31.45157521079602	4.436322421814174	84.62841863592561	85.56367782737453	0	0	31.45157521079602	-31.45157521079602	4.436322421814174	84.62841863592561	85.56367782726988	0	0
